<mxfile host="app.diagrams.net" modified="2022-06-08T02:10:36.136Z" agent="5.0 (Macintosh; Intel Mac OS X 10_15_7) AppleWebKit/537.36 (KHTML, like Gecko) Chrome/100.0.4896.127 Safari/537.36" etag="Cal2E7I5BMyeM3a6NNBo" version="19.0.2" type="github">
  <diagram id="_1OipIb5Q-4CC24sANAU" name="Page-1">
    <mxGraphModel dx="1426" dy="794" grid="1" gridSize="10" guides="1" tooltips="1" connect="1" arrows="1" fold="1" page="1" pageScale="1" pageWidth="827" pageHeight="1169" math="0" shadow="0">
      <root>
        <mxCell id="0" />
        <mxCell id="1" parent="0" />
        <mxCell id="5bzese59VaXOv46YJbxD-38" style="edgeStyle=orthogonalEdgeStyle;rounded=0;orthogonalLoop=1;jettySize=auto;html=1;entryX=0.5;entryY=0;entryDx=0;entryDy=0;fontSize=11;" parent="1" source="5bzese59VaXOv46YJbxD-2" target="5bzese59VaXOv46YJbxD-5" edge="1">
          <mxGeometry relative="1" as="geometry" />
        </mxCell>
        <mxCell id="5bzese59VaXOv46YJbxD-2" value="中台" style="whiteSpace=wrap;html=1;rounded=0;fillColor=#dae8fc;gradientColor=#7ea6e0;strokeColor=#6c8ebf;" parent="1" vertex="1">
          <mxGeometry x="310" y="100" width="120" height="40" as="geometry" />
        </mxCell>
        <mxCell id="5bzese59VaXOv46YJbxD-39" style="edgeStyle=orthogonalEdgeStyle;rounded=0;orthogonalLoop=1;jettySize=auto;html=1;entryX=0.5;entryY=0;entryDx=0;entryDy=0;fontSize=11;" parent="1" source="5bzese59VaXOv46YJbxD-5" target="5bzese59VaXOv46YJbxD-9" edge="1">
          <mxGeometry relative="1" as="geometry" />
        </mxCell>
        <mxCell id="5bzese59VaXOv46YJbxD-5" value="消息中心" style="whiteSpace=wrap;html=1;rounded=0;fillColor=#d5e8d4;gradientColor=#97d077;strokeColor=#82b366;" parent="1" vertex="1">
          <mxGeometry x="310" y="200" width="120" height="50" as="geometry" />
        </mxCell>
        <mxCell id="5bzese59VaXOv46YJbxD-7" value="消息模版模块" style="rounded=1;whiteSpace=wrap;html=1;fillColor=#CCDECB;gradientColor=#97d077;strokeColor=#82b366;" parent="1" vertex="1">
          <mxGeometry x="210" y="300" width="90" height="40" as="geometry" />
        </mxCell>
        <mxCell id="5bzese59VaXOv46YJbxD-8" value="消息推送模块" style="rounded=1;whiteSpace=wrap;html=1;fillColor=#d5e8d4;gradientColor=#97d077;strokeColor=#82b366;" parent="1" vertex="1">
          <mxGeometry x="448.75" y="300" width="90" height="40" as="geometry" />
        </mxCell>
        <mxCell id="5bzese59VaXOv46YJbxD-9" value="服务号模块" style="rounded=1;whiteSpace=wrap;html=1;fillColor=#d5e8d4;gradientColor=#97d077;strokeColor=#82b366;" parent="1" vertex="1">
          <mxGeometry x="325" y="300" width="90" height="40" as="geometry" />
        </mxCell>
        <mxCell id="5bzese59VaXOv46YJbxD-37" style="edgeStyle=orthogonalEdgeStyle;rounded=0;orthogonalLoop=1;jettySize=auto;html=1;exitX=0.5;exitY=1;exitDx=0;exitDy=0;entryX=0.5;entryY=0;entryDx=0;entryDy=0;fontSize=11;fillColor=#fad7ac;strokeColor=#b46504;" parent="1" source="5bzese59VaXOv46YJbxD-14" target="5bzese59VaXOv46YJbxD-33" edge="1">
          <mxGeometry relative="1" as="geometry" />
        </mxCell>
        <mxCell id="5bzese59VaXOv46YJbxD-14" value="Rchat、Hedwig" style="whiteSpace=wrap;html=1;rounded=0;fillColor=#f8cecc;gradientColor=#ea6b66;strokeColor=#b85450;" parent="1" vertex="1">
          <mxGeometry x="306.25" y="665" width="120" height="60" as="geometry" />
        </mxCell>
        <mxCell id="5bzese59VaXOv46YJbxD-18" value="" style="endArrow=classic;startArrow=classic;html=1;rounded=0;entryX=0.5;entryY=1;entryDx=0;entryDy=0;fillColor=#fad7ac;strokeColor=#b46504;" parent="1" source="5bzese59VaXOv46YJbxD-14" target="5bzese59VaXOv46YJbxD-9" edge="1">
          <mxGeometry width="50" height="50" relative="1" as="geometry">
            <mxPoint x="450" y="430" as="sourcePoint" />
            <mxPoint x="500" y="380" as="targetPoint" />
            <Array as="points" />
          </mxGeometry>
        </mxCell>
        <mxCell id="5bzese59VaXOv46YJbxD-19" value="创建、更新服务号同步" style="text;html=1;align=center;verticalAlign=middle;resizable=0;points=[];autosize=1;strokeColor=#d6b656;fillColor=#fff2cc;gradientColor=#ffd966;" parent="1" vertex="1">
          <mxGeometry x="230" y="430" width="140" height="20" as="geometry" />
        </mxCell>
        <mxCell id="5bzese59VaXOv46YJbxD-20" value="" style="shape=curlyBracket;whiteSpace=wrap;html=1;rounded=1;size=0.5;rotation=90;fillColor=#fad9d5;strokeColor=#ae4132;" parent="1" vertex="1">
          <mxGeometry x="475" y="320" width="35" height="87.5" as="geometry" />
        </mxCell>
        <mxCell id="5bzese59VaXOv46YJbxD-21" value="&lt;font style=&quot;font-size: 11px;&quot;&gt;PUSH、应用内&lt;/font&gt;" style="rounded=1;whiteSpace=wrap;html=1;fillColor=#d5e8d4;gradientColor=#97d077;strokeColor=#82b366;" parent="1" vertex="1">
          <mxGeometry x="404.38" y="380" width="78.75" height="26.25" as="geometry" />
        </mxCell>
        <mxCell id="5bzese59VaXOv46YJbxD-22" value="&lt;span style=&quot;font-size: 11px;&quot;&gt;短信&lt;/span&gt;" style="rounded=1;whiteSpace=wrap;html=1;fillColor=#d5e8d4;gradientColor=#97d077;strokeColor=#82b366;" parent="1" vertex="1">
          <mxGeometry x="504.38" y="380" width="78.75" height="26.25" as="geometry" />
        </mxCell>
        <mxCell id="5bzese59VaXOv46YJbxD-47" value="" style="edgeStyle=orthogonalEdgeStyle;rounded=0;orthogonalLoop=1;jettySize=auto;html=1;fontSize=11;" parent="1" source="5bzese59VaXOv46YJbxD-28" target="5bzese59VaXOv46YJbxD-46" edge="1">
          <mxGeometry relative="1" as="geometry" />
        </mxCell>
        <mxCell id="5bzese59VaXOv46YJbxD-28" value="" style="shape=curlyBracket;whiteSpace=wrap;html=1;rounded=1;flipH=1;fontSize=11;rotation=90;fillColor=#fad9d5;strokeColor=#ae4132;" parent="1" vertex="1">
          <mxGeometry x="481.88" y="384.38" width="23.75" height="95" as="geometry" />
        </mxCell>
        <mxCell id="5bzese59VaXOv46YJbxD-31" value="消息推送到mq，等待服务端消费" style="text;html=1;align=center;verticalAlign=middle;resizable=0;points=[];autosize=1;strokeColor=#d6b656;fillColor=#fff2cc;fontSize=11;gradientColor=#ffd966;" parent="1" vertex="1">
          <mxGeometry x="850" y="500" width="190" height="20" as="geometry" />
        </mxCell>
        <mxCell id="5bzese59VaXOv46YJbxD-36" style="edgeStyle=orthogonalEdgeStyle;rounded=0;orthogonalLoop=1;jettySize=auto;html=1;exitX=0.5;exitY=1;exitDx=0;exitDy=0;fontSize=11;fillColor=#fad7ac;strokeColor=#b46504;entryX=1;entryY=0.3333333333333333;entryDx=0;entryDy=0;entryPerimeter=0;" parent="1" source="5bzese59VaXOv46YJbxD-33" target="5bzese59VaXOv46YJbxD-34" edge="1">
          <mxGeometry relative="1" as="geometry">
            <mxPoint x="364.25" y="960" as="targetPoint" />
          </mxGeometry>
        </mxCell>
        <mxCell id="5bzese59VaXOv46YJbxD-33" value="三方" style="whiteSpace=wrap;html=1;rounded=0;fillColor=#e6d0de;gradientColor=#d5739d;strokeColor=#996185;" parent="1" vertex="1">
          <mxGeometry x="303.75" y="760" width="120" height="60" as="geometry" />
        </mxCell>
        <mxCell id="5bzese59VaXOv46YJbxD-34" value="用户" style="shape=umlActor;verticalLabelPosition=bottom;verticalAlign=top;html=1;fontSize=11;fillColor=#F0A30A;" parent="1" vertex="1">
          <mxGeometry x="206.25" y="890" width="30" height="60" as="geometry" />
        </mxCell>
        <mxCell id="5bzese59VaXOv46YJbxD-40" value="" style="endArrow=classic;html=1;rounded=0;fontSize=11;entryX=0.5;entryY=0;entryDx=0;entryDy=0;" parent="1" target="5bzese59VaXOv46YJbxD-7" edge="1">
          <mxGeometry width="50" height="50" relative="1" as="geometry">
            <mxPoint x="370" y="250" as="sourcePoint" />
            <mxPoint x="300" y="260" as="targetPoint" />
          </mxGeometry>
        </mxCell>
        <mxCell id="5bzese59VaXOv46YJbxD-41" value="" style="endArrow=classic;html=1;rounded=0;fontSize=11;entryX=0.5;entryY=0;entryDx=0;entryDy=0;" parent="1" target="5bzese59VaXOv46YJbxD-8" edge="1">
          <mxGeometry width="50" height="50" relative="1" as="geometry">
            <mxPoint x="370" y="250" as="sourcePoint" />
            <mxPoint x="263.75" y="300" as="targetPoint" />
          </mxGeometry>
        </mxCell>
        <mxCell id="5bzese59VaXOv46YJbxD-42" value="消息中心界面管理" style="text;html=1;align=center;verticalAlign=middle;resizable=0;points=[];autosize=1;strokeColor=#d79b00;fillColor=#ffcd28;fontSize=11;gradientColor=#ffa500;" parent="1" vertex="1">
          <mxGeometry x="433.75" y="110" width="110" height="20" as="geometry" />
        </mxCell>
        <mxCell id="5bzese59VaXOv46YJbxD-43" value="消息中心业务层处理" style="text;html=1;align=center;verticalAlign=middle;resizable=0;points=[];autosize=1;strokeColor=#d79b00;fillColor=#ffcd28;fontSize=11;gradientColor=#ffa500;" parent="1" vertex="1">
          <mxGeometry x="433.75" y="215" width="120" height="20" as="geometry" />
        </mxCell>
        <mxCell id="5bzese59VaXOv46YJbxD-45" value="消息发送到用户手机、app" style="text;html=1;align=center;verticalAlign=middle;resizable=0;points=[];autosize=1;strokeColor=#d6b656;fillColor=#fff2cc;fontSize=11;gradientColor=#ffd966;" parent="1" vertex="1">
          <mxGeometry x="286.25" y="880" width="160" height="20" as="geometry" />
        </mxCell>
        <mxCell id="5bzese59VaXOv46YJbxD-46" value="用户ID、标签、区域、类型" style="whiteSpace=wrap;html=1;fontSize=11;fillColor=#fad9d5;strokeColor=#ae4132;rounded=1;" parent="1" vertex="1">
          <mxGeometry x="433.76" y="450" width="116.24" height="30" as="geometry" />
        </mxCell>
        <mxCell id="5bzese59VaXOv46YJbxD-54" value="" style="shape=curlyBracket;whiteSpace=wrap;html=1;rounded=1;fontSize=11;fillColor=#f8cecc;gradientColor=#ea6b66;strokeColor=#b85450;" parent="1" vertex="1">
          <mxGeometry x="553.75" y="416.88" width="20" height="113.12" as="geometry" />
        </mxCell>
        <mxCell id="5bzese59VaXOv46YJbxD-60" value="标签" style="whiteSpace=wrap;html=1;fontSize=11;fillColor=#fad9d5;strokeColor=#ae4132;rounded=1;" parent="1" vertex="1">
          <mxGeometry x="583.13" y="414.06" width="61.88" height="25" as="geometry" />
        </mxCell>
        <mxCell id="5bzese59VaXOv46YJbxD-61" value="区域" style="whiteSpace=wrap;html=1;fontSize=11;fillColor=#fad9d5;strokeColor=#ae4132;rounded=1;" parent="1" vertex="1">
          <mxGeometry x="583.13" y="444.68" width="61.88" height="25" as="geometry" />
        </mxCell>
        <mxCell id="5bzese59VaXOv46YJbxD-62" value="类型" style="whiteSpace=wrap;html=1;fontSize=11;fillColor=#fad9d5;strokeColor=#ae4132;rounded=1;" parent="1" vertex="1">
          <mxGeometry x="583.13" y="474.68" width="61.88" height="25" as="geometry" />
        </mxCell>
        <mxCell id="5bzese59VaXOv46YJbxD-63" value="用户中心" style="whiteSpace=wrap;html=1;rounded=0;fillColor=#e1d5e7;strokeColor=#9673a6;" parent="1" vertex="1">
          <mxGeometry x="730" y="290" width="120" height="50" as="geometry" />
        </mxCell>
        <mxCell id="5bzese59VaXOv46YJbxD-64" value="ID" style="whiteSpace=wrap;html=1;fontSize=11;fillColor=#fad9d5;strokeColor=#ae4132;rounded=1;" parent="1" vertex="1">
          <mxGeometry x="583.13" y="507.81" width="61.88" height="25" as="geometry" />
        </mxCell>
        <mxCell id="5bzese59VaXOv46YJbxD-65" value="" style="endArrow=classic;startArrow=classic;html=1;rounded=0;fontSize=11;exitX=0.5;exitY=0;exitDx=0;exitDy=0;entryX=0.5;entryY=1;entryDx=0;entryDy=0;fillColor=#a0522d;strokeColor=#6D1F00;" parent="1" source="5bzese59VaXOv46YJbxD-60" target="5bzese59VaXOv46YJbxD-63" edge="1">
          <mxGeometry width="50" height="50" relative="1" as="geometry">
            <mxPoint x="700" y="430" as="sourcePoint" />
            <mxPoint x="750" y="380" as="targetPoint" />
          </mxGeometry>
        </mxCell>
        <mxCell id="5bzese59VaXOv46YJbxD-67" value="ISS" style="whiteSpace=wrap;html=1;rounded=0;fillColor=#e1d5e7;strokeColor=#9673a6;" parent="1" vertex="1">
          <mxGeometry x="870" y="320" width="120" height="50" as="geometry" />
        </mxCell>
        <mxCell id="5bzese59VaXOv46YJbxD-70" value="" style="shape=curlyBracket;whiteSpace=wrap;html=1;rounded=1;flipH=1;fontSize=11;fillColor=#fad9d5;strokeColor=#ae4132;" parent="1" vertex="1">
          <mxGeometry x="650" y="450" width="20" height="45" as="geometry" />
        </mxCell>
        <mxCell id="5bzese59VaXOv46YJbxD-71" value="" style="endArrow=classic;startArrow=none;html=1;rounded=0;fontSize=11;entryX=0.5;entryY=1;entryDx=0;entryDy=0;fillColor=#a20025;strokeColor=#6F0000;" parent="1" target="5bzese59VaXOv46YJbxD-67" edge="1">
          <mxGeometry width="50" height="50" relative="1" as="geometry">
            <mxPoint x="670" y="470" as="sourcePoint" />
            <mxPoint x="740" y="450" as="targetPoint" />
            <Array as="points">
              <mxPoint x="670" y="410" />
            </Array>
          </mxGeometry>
        </mxCell>
        <mxCell id="5bzese59VaXOv46YJbxD-73" value="" style="endArrow=none;startArrow=classic;html=1;rounded=0;fontSize=11;exitX=0.1;exitY=0.5;exitDx=0;exitDy=0;exitPerimeter=0;fillColor=#a20025;strokeColor=#6F0000;" parent="1" source="5bzese59VaXOv46YJbxD-70" edge="1">
          <mxGeometry width="50" height="50" relative="1" as="geometry">
            <mxPoint x="668" y="472.5" as="sourcePoint" />
            <mxPoint x="668" y="450" as="targetPoint" />
          </mxGeometry>
        </mxCell>
        <mxCell id="5bzese59VaXOv46YJbxD-74" value="" style="shape=curlyBracket;whiteSpace=wrap;html=1;rounded=1;fontSize=11;fillColor=#f8cecc;gradientColor=#ea6b66;strokeColor=#b85450;rotation=-180;" parent="1" vertex="1">
          <mxGeometry x="680" y="416.88" width="20" height="113.12" as="geometry" />
        </mxCell>
        <mxCell id="5bzese59VaXOv46YJbxD-77" value="结果取交集" style="ellipse;shape=doubleEllipse;whiteSpace=wrap;html=1;fontSize=11;fillColor=#FFCCCC;" parent="1" vertex="1">
          <mxGeometry x="700" y="444.68" width="90" height="45.32" as="geometry" />
        </mxCell>
        <mxCell id="5bzese59VaXOv46YJbxD-78" value="优惠券" style="whiteSpace=wrap;html=1;fontSize=11;fillColor=#fad9d5;strokeColor=#ae4132;rounded=1;" parent="1" vertex="1">
          <mxGeometry x="433.76" y="532.81" width="116.24" height="30" as="geometry" />
        </mxCell>
        <mxCell id="5bzese59VaXOv46YJbxD-79" value="coupon" style="whiteSpace=wrap;html=1;rounded=0;fillColor=#e1d5e7;strokeColor=#9673a6;" parent="1" vertex="1">
          <mxGeometry x="220" y="500" width="120" height="50" as="geometry" />
        </mxCell>
        <mxCell id="5bzese59VaXOv46YJbxD-80" value="" style="endArrow=classic;startArrow=classic;html=1;rounded=0;fontSize=11;exitX=1;exitY=0.5;exitDx=0;exitDy=0;entryX=0;entryY=0.25;entryDx=0;entryDy=0;fillColor=#a20025;strokeColor=#6F0000;" parent="1" source="5bzese59VaXOv46YJbxD-79" target="5bzese59VaXOv46YJbxD-78" edge="1">
          <mxGeometry width="50" height="50" relative="1" as="geometry">
            <mxPoint x="380" y="570" as="sourcePoint" />
            <mxPoint x="430" y="520" as="targetPoint" />
          </mxGeometry>
        </mxCell>
        <mxCell id="5bzese59VaXOv46YJbxD-81" value="" style="shape=curlyBracket;whiteSpace=wrap;html=1;rounded=1;fontSize=11;fillColor=#fad9d5;strokeColor=#ae4132;" parent="1" vertex="1">
          <mxGeometry x="395" y="460" width="20" height="160" as="geometry" />
        </mxCell>
        <mxCell id="5bzese59VaXOv46YJbxD-82" value="消息内容" style="whiteSpace=wrap;html=1;fontSize=11;fillColor=#fad9d5;strokeColor=#ae4132;rounded=1;" parent="1" vertex="1">
          <mxGeometry x="434.38" y="600" width="116.24" height="30" as="geometry" />
        </mxCell>
        <mxCell id="5bzese59VaXOv46YJbxD-83" value="" style="shape=curlyBracket;whiteSpace=wrap;html=1;rounded=1;flipH=1;fontSize=11;fillColor=#fad9d5;strokeColor=#ae4132;" parent="1" vertex="1">
          <mxGeometry x="820" y="420" width="20" height="210" as="geometry" />
        </mxCell>
        <mxCell id="5bzese59VaXOv46YJbxD-84" value="Rchat、Hedwig" style="shape=tape;whiteSpace=wrap;html=1;fontSize=11;fillColor=#0050ef;fontColor=#ffffff;strokeColor=#001DBC;" parent="1" vertex="1">
          <mxGeometry x="1050" y="490.31" width="120" height="60" as="geometry" />
        </mxCell>
        <mxCell id="5bzese59VaXOv46YJbxD-85" value="" style="endArrow=classic;html=1;rounded=0;fontSize=11;exitX=0.1;exitY=0.5;exitDx=0;exitDy=0;exitPerimeter=0;fillColor=#f8cecc;strokeColor=#b85450;" parent="1" source="5bzese59VaXOv46YJbxD-83" edge="1">
          <mxGeometry width="50" height="50" relative="1" as="geometry">
            <mxPoint x="850" y="560" as="sourcePoint" />
            <mxPoint x="1050" y="525" as="targetPoint" />
          </mxGeometry>
        </mxCell>
        <mxCell id="5bzese59VaXOv46YJbxD-86" value="" style="endArrow=classic;startArrow=none;html=1;rounded=0;fontSize=11;entryX=0.838;entryY=0.684;entryDx=0;entryDy=0;entryPerimeter=0;fillColor=#f0a30a;strokeColor=#BD7000;" parent="1" target="5bzese59VaXOv46YJbxD-84" edge="1">
          <mxGeometry width="50" height="50" relative="1" as="geometry">
            <mxPoint x="550" y="700" as="sourcePoint" />
            <mxPoint x="1010" y="610" as="targetPoint" />
            <Array as="points">
              <mxPoint x="820" y="670" />
            </Array>
          </mxGeometry>
        </mxCell>
        <mxCell id="5bzese59VaXOv46YJbxD-44" value="消息中心服务层处理" style="text;html=1;align=center;verticalAlign=middle;resizable=0;points=[];autosize=1;strokeColor=#d79b00;fillColor=#ffcd28;fontSize=11;gradientColor=#ffa500;" parent="1" vertex="1">
          <mxGeometry x="434.38" y="670" width="120" height="20" as="geometry" />
        </mxCell>
        <mxCell id="5bzese59VaXOv46YJbxD-87" value="" style="endArrow=none;startArrow=classic;html=1;rounded=0;fontSize=11;exitX=1;exitY=0.5;exitDx=0;exitDy=0;fillColor=#e3c800;strokeColor=#B09500;" parent="1" source="5bzese59VaXOv46YJbxD-14" edge="1">
          <mxGeometry width="50" height="50" relative="1" as="geometry">
            <mxPoint x="426.25" y="695.0000000000002" as="sourcePoint" />
            <mxPoint x="550" y="700" as="targetPoint" />
            <Array as="points" />
          </mxGeometry>
        </mxCell>
        <mxCell id="5bzese59VaXOv46YJbxD-88" value="根据定时推送或立即推送&lt;br&gt;对消息进行区别处理" style="text;html=1;align=center;verticalAlign=middle;resizable=0;points=[];autosize=1;strokeColor=#B09500;fillColor=#e3c800;fontSize=11;fontColor=#000000;" parent="1" vertex="1">
          <mxGeometry x="538.75" y="348.75" width="150" height="30" as="geometry" />
        </mxCell>
      </root>
    </mxGraphModel>
  </diagram>
</mxfile>
